<svg width="1130" height="424" viewBox="0 0 1130 424" fill="none" xmlns="http://www.w3.org/2000/svg">
<g style="mix-blend-mode:multiply" opacity="0.8" filter="url(#filter0_f_1300_1377)">
<path d="M1022.83 213.798C1022.51 171.384 817.349 138.559 564.598 140.481C311.847 142.403 107.213 178.344 107.535 220.758C107.858 263.173 313.015 295.998 565.766 294.076C818.517 292.154 1023.15 256.212 1022.83 213.798Z" fill="#203C54"/>
</g>
<g style="mix-blend-mode:multiply" opacity="0.8" filter="url(#filter1_f_1300_1377)">
<path d="M943.411 207.63C943.628 236.187 769.268 260.663 553.966 262.301C338.665 263.938 163.952 242.116 163.735 213.559C163.518 185.003 337.878 160.526 553.18 158.889C768.481 157.252 943.194 179.074 943.411 207.63Z" fill="#0A3B60"/>
</g>
<g style="mix-blend-mode:multiply" opacity="0.8" filter="url(#filter2_f_1300_1377)">
<ellipse cx="618.13" cy="27.4588" rx="170.531" ry="48.0274" transform="rotate(-0.435694 618.13 27.4588)" fill="#005CA0"/>
</g>
<defs>
<filter id="filter0_f_1300_1377" x="0.433228" y="33.299" width="1129.5" height="367.959" filterUnits="userSpaceOnUse" color-interpolation-filters="sRGB">
<feFlood flood-opacity="0" result="BackgroundImageFix"/>
<feBlend mode="normal" in="SourceGraphic" in2="BackgroundImageFix" result="shape"/>
<feGaussianBlur stdDeviation="53.5507" result="effect1_foregroundBlur_1300_1377"/>
</filter>
<filter id="filter1_f_1300_1377" x="3.08269" y="-1.84946" width="1100.98" height="424.889" filterUnits="userSpaceOnUse" color-interpolation-filters="sRGB">
<feFlood flood-opacity="0" result="BackgroundImageFix"/>
<feBlend mode="normal" in="SourceGraphic" in2="BackgroundImageFix" result="shape"/>
<feGaussianBlur stdDeviation="80.3261" result="effect1_foregroundBlur_1300_1377"/>
</filter>
<filter id="filter2_f_1300_1377" x="286.951" y="-181.237" width="662.358" height="417.392" filterUnits="userSpaceOnUse" color-interpolation-filters="sRGB">
<feFlood flood-opacity="0" result="BackgroundImageFix"/>
<feBlend mode="normal" in="SourceGraphic" in2="BackgroundImageFix" result="shape"/>
<feGaussianBlur stdDeviation="80.3261" result="effect1_foregroundBlur_1300_1377"/>
</filter>
</defs>
</svg>
