<svg xmlns="http://www.w3.org/2000/svg" width="1130" height="424" fill="none" viewBox="0 0 1130 424"><g filter="url(#a)" opacity="0.8" style="mix-blend-mode:multiply"><path fill="#203C54" d="M1022.83 213.798c-.32-42.414-205.481-75.239-458.232-73.317s-457.385 37.863-457.063 80.277 205.48 75.24 458.231 73.318 457.384-37.864 457.064-80.278"/></g><g filter="url(#b)" opacity="0.8" style="mix-blend-mode:multiply"><path fill="#0A3B60" d="M943.411 207.63c.217 28.557-174.143 53.033-389.445 54.671-215.301 1.637-390.014-20.185-390.231-48.742s174.143-53.033 389.445-54.67c215.301-1.637 390.014 20.185 390.231 48.741"/></g><g filter="url(#c)" opacity="0.8" style="mix-blend-mode:multiply"><ellipse cx="618.13" cy="27.4588" fill="#005CA0" rx="170.531" ry="48.0274" transform="rotate(-.436 618.13 27.459)"/></g><defs><filter id="a" width="1129.5" height="367.959" x="0.433228" y="33.299" color-interpolation-filters="sRGB" filterUnits="userSpaceOnUse"><feFlood flood-opacity="0" result="BackgroundImageFix"/><feBlend in="SourceGraphic" in2="BackgroundImageFix" result="shape"/><feGaussianBlur result="effect1_foregroundBlur_1300_1377" stdDeviation="53.5507"/></filter><filter id="b" width="1100.98" height="424.889" x="3.08269" y="-1.84946" color-interpolation-filters="sRGB" filterUnits="userSpaceOnUse"><feFlood flood-opacity="0" result="BackgroundImageFix"/><feBlend in="SourceGraphic" in2="BackgroundImageFix" result="shape"/><feGaussianBlur result="effect1_foregroundBlur_1300_1377" stdDeviation="80.3261"/></filter><filter id="c" width="662.358" height="417.392" x="286.951" y="-181.237" color-interpolation-filters="sRGB" filterUnits="userSpaceOnUse"><feFlood flood-opacity="0" result="BackgroundImageFix"/><feBlend in="SourceGraphic" in2="BackgroundImageFix" result="shape"/><feGaussianBlur result="effect1_foregroundBlur_1300_1377" stdDeviation="80.3261"/></filter></defs></svg>